<svg xmlns="http://www.w3.org/2000/svg" data-name="Layer 1" width="893.917" height="637.46"><path d="M813.697 587.15c-16.08 7.03-35.19 9.85-53.84 12.53-102.89 14.83-206.11 29.69-310.89 35.38q-37.335 2.04-74.92 2.37c-1.67.01-3.34.02-5.01.02q-8.07.03-16.15-.03c-73.25-.57-146.27-6.93-216.03-21.98-29.69-6.4-59.07-14.5-83.89-27.41-19.63-10.21-36.29-23.74-45.39-39.34a55.95 55.95 0 0 1-5.55-12.79 51.433 51.433 0 0 1-1.93-11.3 43.83 43.83 0 0 1-.08-4.13 59.37 59.37 0 0 1 1.47-11.97c2.64-11.85 8.63-23.52 16.24-34.84.04-.05.07-.11.11-.16q1.335-1.995 2.75-3.97c.48-.68.97-1.36 1.46-2.03 6.13-8.44 13.02-16.67 19.91-24.6 5.73-6.6 11.55-13.33 17.07-20.18q1.65-2.055 3.27-4.13a204.726 204.726 0 0 0 12.06-17.05c.42-.68.84-1.36 1.25-2.04q1.8-2.985 3.41-6a85.884 85.884 0 0 0 8.32-21.72c.31-1.37.57-2.75.77-4.13a55.34 55.34 0 0 0 .06-16.9c-.08-.54-.17-1.08-.28-1.61-1.5-8.17-4.86-15.99-9.21-23.64-.88-1.56-1.81-3.11-2.77-4.66-.28-.45-.55-.89-.84-1.34q-.885-1.395-1.8-2.79c-7.72-11.71-16.98-23.16-24.45-34.97a125.051 125.051 0 0 1-6.7-11.83c-.67-1.37-1.31-2.75-1.89-4.13a69.8 69.8 0 0 1-3.27-9.29 56.775 56.775 0 0 1-1.48-22.25v-.01a62.926 62.926 0 0 1 4.02-15.26c.56-1.39 1.16-2.77 1.82-4.13a81.65 81.65 0 0 1 17.2-23.47 101.99 101.99 0 0 1 18.15-13.87c.74-.46 1.5-.9 2.26-1.34q3.225-1.86 6.59-3.52 1.155-.6 2.31-1.14a149.144 149.144 0 0 1 14.28-5.92c.54-.2 1.08-.39 1.63-.57 1.14-.4 2.29-.78 3.44-1.15 2.02-.66 4.07-1.27 6.14-1.85 42.52-12.04 93.85-10.24 140.22-4.11q6.435.855 12.88 1.79c3.36.47 6.72.97 10.09 1.48 13.26 1.99 26.53 4.11 39.82 6.08 10.44 1.55 20.89 3.01 31.35 4.25a481.326 481.326 0 0 0 56.83 3.76c9.74 0 19.49-.39 29.25-1.3q9.81-.915 19.43-2.46a462.192 462.192 0 0 0 51.66-11.61c10.62-2.94 21.13-6.09 31.59-9.23q7.965-2.4 15.98-4.77 7.8-2.31 15.65-4.51c8.87-2.48 17.81-4.81 26.85-6.89a350.271 350.271 0 0 1 44.07-7.44q3.96-.39 7.97-.66 5.79-.39 11.63-.5c4.84-.11 9.69-.07 14.52.14 1.39.05 2.77.12 4.16.2q3.36.21 6.69.51c.27.02.53.05.79.07 4.62.44 9.19 1.03 13.68 1.78a146.238 146.238 0 0 1 35.54 10.32l.03.01q4.095 1.815 7.94 3.93a78.988 78.988 0 0 1 13.26 9.12 66.073 66.073 0 0 1 9.67 10.12c.48.62.94 1.25 1.37 1.88 10.16 14.41 12.14 31.32 1.78 45.53l.41-4.04c-1.18 3.12-2.37 6.25-3.54 9.38-.52 1.37-1.04 2.75-1.55 4.13q-3.585 9.57-7.04 19.23v.04c-.72 1.99-1.42 3.94-2.11 5.94v.04c-2.52 7.17-4.94 14.34-7.22 21.56-.43 1.37-.87 2.75-1.29 4.13q-.78 2.535-1.54 5.07-.78 2.595-1.53 5.21c-.2.69-.39 1.39-.59 2.09-3.25 11.46-6.06 22.95-8.25 34.43-.27 1.38-.52 2.76-.77 4.13l-.39 2.23c-.14.81-.27 1.62-.4 2.43a256.251 256.251 0 0 0-3.52 42.15c0 1.38.02 2.76.05 4.13a197.18 197.18 0 0 0 1.7 21.72q.405 3 .91 6a173.393 173.393 0 0 0 4.33 19.09c.39 1.38.81 2.76 1.24 4.13a169.76 169.76 0 0 0 13.13 30.74q3.916 7.125 8.59 14.04c.46.68.92 1.36 1.39 2.03q1.38 1.995 2.84 3.97c.04.05.08.11.12.16a214.828 214.828 0 0 0 32.43 34.84q6.675 5.805 13.96 11.26c.31.23.63.47.94.71 1.84 1.36 3.72 2.74 5.59 4.13 9.83 7.3 19.57 15 23.44 24.09a21.042 21.042 0 0 1 1.63 6.05c1.45 13.08-11.2 25.37-27.28 32.41Z" fill="#f2f2f2"/><path d="M729.981 171.503c-.27 2-.52 4-.77 6H72.121c-.85-2.01-1.74-4.01-2.64-6ZM724.951 251.503h-641.4c.31-1.99.57-4 .77-6h640.58q0 3 .05 6ZM733.127 325.5H78.677c-.88-1.56-1.81-3.11-2.77-4.66-.28-.45-.55-.89-.84-1.34h656.82q.345 1.785.72 3.57c.17.81.35 1.62.52 2.43ZM731.347 399.5H72.777c-1.16-1.45-2.35-2.87-3.54-4.24l-1.52-1.76h662.72q.405 3 .91 6ZM762.867 473.5H17.837q1.335-1.995 2.75-3.97c.48-.68.97-1.36 1.46-2.03h736.59c.46.68.92 1.36 1.39 2.03q1.38 1.995 2.84 3.97Z" fill="#fff"/><path d="M544.787 5.36a21.34 21.34 0 0 0-2.78-2.04v-.01a2.54 2.54 0 0 0-.28-.16 21.244 21.244 0 0 0-3.52-1.72 21.68 21.68 0 0 0-7.79-1.43h-242a22.026 22.026 0 0 0-22 22v475a21.78 21.78 0 0 0 1.01 6.59c.07.23.15.46.23.68.06.18.12.35.19.52a19.119 19.119 0 0 0 1.17 2.56c.21.39.43.77.66 1.15.21.35.43.68.67 1.01q.165.255.36.51a.21.21 0 0 0 .06.08c.21.29.43.58.67.86.37.45.76.89 1.16 1.3.27.29.55.56.83.82a21.934 21.934 0 0 0 14.99 5.92h242a22.011 22.011 0 0 0 22-22V22a21.94 21.94 0 0 0-7.63-16.64Z" fill="#e6e6e6"/><path d="M538.917 251.5h-.03c-.68-.02-1.36 0-2.04 0h-35.28a52.21 52.21 0 0 0-5.87 0 7.388 7.388 0 0 0-3.49 1.16 6.545 6.545 0 0 0-2.82 5.34 6.629 6.629 0 0 0 6.65 6.5c1 .02 2.01 0 3.01 0h35.57c3.78 0 8.12.48 10.11-3.65a6.573 6.573 0 0 0-5.81-9.35Z" fill="#ccc"/><circle cx="517.381" cy="296.503" r="10" fill="#ccc"/><circle cx="517.381" cy="296.503" r="4" fill="#f2f2f2"/><path d="M284.411 406.993a37.323 37.323 0 0 0-10.98 26.5 23.093 23.093 0 0 0 23.09 23.09h241.82c3.72 0 4.88 2.41 2.37 5.15-.91.99-1.89.83-2.87.85-4.45.08-8.92 0-13.38 0h-213.55a37.482 37.482 0 0 0-37.48 37.49v13.01a21.996 21.996 0 0 1-6-9.49v-2.26a38.933 38.933 0 0 0-1.01-8.83v-58.82a30.614 30.614 0 0 0 1.01-7.83 29.69 29.69 0 0 0-1.01-7.71v-51.03a30.671 30.671 0 0 0 1.01-7.83 29.69 29.69 0 0 0-1.01-7.71v-51.04a30.671 30.671 0 0 0 1.01-7.83v-41.69h6v23.36a49.062 49.062 0 0 0 49.06 49.06h215.87c3.72 0 4.89 2.41 2.37 5.15-.92.99-1.91.84-2.89.85-4.45.08-8.92 0-13.38 0h-213.55a37.488 37.488 0 0 0-37.48 37.49 23.093 23.093 0 0 0 23.09 23.09h241.82c3.72 0 4.88 2.4 2.37 5.15-.91.99-1.89.83-2.87.85-4.45.08-8.92 0-13.38 0h-213.55a37.324 37.324 0 0 0-26.5 10.98ZM540.711 137.733c-.91.99-1.89.83-2.87.85-4.45.08-8.92 0-13.38 0h-213.55a37.482 37.482 0 0 0-37.48 37.49v13.01a21.996 21.996 0 0 1-6-9.49v-2.26a38.933 38.933 0 0 0-1.01-8.83v-58.82a30.614 30.614 0 0 0 1.01-7.83 29.69 29.69 0 0 0-1.01-7.71v-72.14a22.026 22.026 0 0 1 22-22h242a21.68 21.68 0 0 1 7.79 1.43 21.239 21.239 0 0 1 3.52 1.72 5.661 5.661 0 0 1-1 1.43c-.92.99-1.91.84-2.89.85-4.45.08-8.92 0-13.38 0h-213.55a37.488 37.488 0 0 0-37.48 37.49 23.093 23.093 0 0 0 23.09 23.09h241.82c3.72 0 4.88 2.4 2.37 5.15-.91.99-1.89.83-2.87.85-4.45.08-8.92 0-13.38 0h-213.55a37.488 37.488 0 0 0-37.48 37.48 23.093 23.093 0 0 0 23.09 23.09h241.82c3.72 0 4.88 2.41 2.37 5.15Z" fill="#ccc"/><circle cx="581.067" cy="210.83" r="15" fill="#fff"/><path d="M193.137 473.5c-1.87 13.8-13.06 25.94-26.12 31.83a65.023 65.023 0 0 1-8.65 3.17c-12.97 3.79-26.99 3.95-40.63 4.03q-20.67.135-41.34.26c-10.87.07-22.09.07-32.13-4.1-.15-.06-.3-.12-.44-.19-9.85-4.26-18.26-13.61-18.02-24.32a21.999 21.999 0 0 1 3.1-10.68 31.394 31.394 0 0 1 4.58-6c5.47-5.67 13.05-10.11 20.15-13.68 12.92-6.49 27.7-15.11 29.1-29.5.81-8.3-3.23-15.95-8.38-22.78-.51-.69-1.04-1.37-1.58-2.04-1.16-1.45-2.35-2.87-3.54-4.24l-1.52-1.76c-6.75-7.82-13.58-16.41-13.84-26.63-.27-10.69 11.67-21.45 20.71-16.4q6.645-.66 13.3-1.33 8.16-.81 16.3-1.63c1.21-.11 2.41-.23 3.61-.36q16.935-1.68 33.85-3.38c5.02-.5 10.91-.68 14.17 3.17 3.55 4.21 1.71 10.85-1.8 15.09s-8.38 7.23-11.69 11.62c-4.26 5.66-5.26 12.82-4.03 19.85a36.086 36.086 0 0 0 1.58 6 40.189 40.189 0 0 0 5.08 9.78c7.4 10.38 18.36 17.53 28.1 25.75 9.74 8.23 18.86 18.68 20.2 31.35.04.37.07.75.09 1.12a29.276 29.276 0 0 1-.21 6Z" fill="#e6e6e6"/><path d="M113.955 358.2a143.157 143.157 0 0 1-24.847-32.886 146.015 146.015 0 0 1-14.55-38.37 140.26 140.26 0 0 1-3.01-41.51 145.35 145.35 0 0 1 30.11-77.832q1.596-2.048 3.27-4.034c1.243-1.48 3.355.652 2.12 2.122A142.003 142.003 0 0 0 75 240.68a141.213 141.213 0 0 0 41.076 115.4c1.377 1.357-.745 3.478-2.121 2.12Z" fill="#e6e6e6"/><path d="M100.449 170.15a36.356 36.356 0 0 0 3.563-1.555l.174.272Z" fill="#e6e6e6"/><path d="M99.127 131.562c4.193-5.255 12.21-7.611 18.01-4.21 3.89 2.279 6.218 6.71 6.658 11.197a24.518 24.518 0 0 1-2.812 13.05 37.9 37.9 0 0 1-16.971 16.996c-3.601-5.555-6.98-11.396-8.417-17.853-1.46-6.563-.662-13.926 3.532-19.18ZM47.357 169.06a61.394 61.394 0 0 1 9.53-50.513c1.06 17.593 19.496 28.796 26.246 45.078a36.638 36.638 0 0 1-1.995 31.694l-1.014 13.35a61.394 61.394 0 0 1-32.767-39.608ZM14.702 218.987c9.22 15.022 30.759 16.224 44.38 27.409a36.638 36.638 0 0 1 13.165 28.9l5.392 12.255a60.497 60.497 0 0 1-62.937-68.564ZM99.61 251.84a60.497 60.497 0 0 1 1.66 93.055l-4.54-12.596a36.638 36.638 0 0 1-10.383-30.012c2.16-17.492 16.937-33.21 13.262-50.448Z" fill="#e6e6e6"/><path d="M508.421 133.503a99.275 99.275 0 0 1-1.29 16q-.54 3.345-1.31 6.61c-.19.8-.38 1.6-.59 2.39a94.96 94.96 0 0 1-2.29 7.53 99.045 99.045 0 0 1-46.72 54.71c-1.41.77-2.85 1.5-4.3 2.19q-2.76 1.32-5.61 2.46-1.68.675-3.39 1.29a99.442 99.442 0 0 1-63 1.35c-1.01-.31-2-.64-2.99-.99q-3.06-1.05-6.01-2.3c-1.32-.56-2.62-1.14-3.9-1.76a99.269 99.269 0 0 1-51.13-56.95 100.672 100.672 0 0 1-2.87-9.92q-.765-3.27-1.31-6.61a99.325 99.325 0 0 1 9.85-61.66c.06-.11.12-.23.18-.34a97.917 97.917 0 0 1 5.36-9l.39-.57a99.27 99.27 0 0 1 39.53-33.92 96.8 96.8 0 0 1 3.9-1.75c1.91-.8 3.84-1.55 5.81-2.23 1.05-.37 2.12-.72 3.19-1.06a99.442 99.442 0 0 1 63 1.35c1.21.43 2.41.89 3.6 1.37q2.745 1.11 5.4 2.38 2.175 1.035 4.3 2.18a99.023 99.023 0 0 1 35.13 31.68l.39.57a97.917 97.917 0 0 1 5.36 9c.06.11.12.23.18.34a98.494 98.494 0 0 1 11.14 45.66Z" fill="#fff"/><path d="M813.697 587.15c-16.08 7.03-35.19 9.85-53.84 12.53-102.89 14.83-206.11 29.69-310.89 35.38q-37.335 2.04-74.92 2.37c-1.67.01-3.34.02-5.01.02q-8.07.03-16.15-.03c-73.25-.57-146.27-6.93-216.03-21.98-29.69-6.4-59.07-14.5-83.89-27.41-19.63-10.21-36.29-23.74-45.39-39.34a55.95 55.95 0 0 1-5.55-12.79 51.433 51.433 0 0 1-1.93-11.3 43.83 43.83 0 0 1-.08-4.13 59.37 59.37 0 0 1 1.47-11.97h793.93q6.675 5.805 13.96 11.26c.31.23.63.47.94.71 1.84 1.36 3.72 2.74 5.59 4.13 9.83 7.3 19.57 15 23.44 24.09a21.042 21.042 0 0 1 1.63 6.05c1.45 13.08-11.2 25.37-27.28 32.41Z" fill="#ccc"/><path d="M553.417 540.44c0-1.62.09-3.26-.01-4.88a8.071 8.071 0 0 0-7.96-7.56c-1.02-.02-2.04 0-3.06 0h-268.43a8.175 8.175 0 0 0-8.54 8.21c-.05 5.83 0 11.66 0 17.49v10.16c0 1.64-.11 3.34.05 4.98a8.044 8.044 0 0 0 7.94 7.16c.32.01.65 0 .97 0h271.1a8.076 8.076 0 0 0 7.94-8.15c.02-2.08 0-4.17 0-6.26Z" fill="#e6e6e6"/><circle cx="538.921" cy="261.503" r="10" fill="#ccc"/><path d="M787.107 56.138v90.276a5.985 5.985 0 0 0 5.25 6.013c.195.013.389.026.583.026a5.78 5.78 0 0 0 3.905-1.513 5.865 5.865 0 0 0 1.9-4.306V55.466ZM673.107 56.138v90.276a5.985 5.985 0 0 0 5.25 6.013c.195.013.389.026.583.026a5.78 5.78 0 0 0 3.905-1.513 5.865 5.865 0 0 0 1.9-4.306V55.466Z" fill="#6c63ff"/><path d="M838.147 148.2a8.65 8.65 0 0 0-7.27-8.49l-6.76-1.11-11.64-1.91-13.73-2.25-11.64-1.92-80.27-13.18a8.765 8.765 0 0 0-3.57.16l-18.52 4.8-7.48 1.93-3.05.79h-.01l-.01.01-1.09.28-11.03 2.85-3.49.9-1.07.27-10.56 2.73-20.23 5.24a8.6 8.6 0 0 0-3.63 1.96v.02a8.567 8.567 0 0 0-2.86 6.41v101.67a8.057 8.057 0 0 0 .28 2.14 8.73 8.73 0 0 0 6.59 6.33l114.91 24.45 11.43 2.43a7.284 7.284 0 0 0 1.47.17 1.939 1.939 0 0 0 .34.02 8.892 8.892 0 0 0 1.15-.08l.01-.01a7.379 7.379 0 0 0 1.45-.32l40.88-12.91 34.18-10.79a8.623 8.623 0 0 0 6.06-8.33Z" fill="#fff"/><path d="M830.557 148.25a1.063 1.063 0 0 0-.91-1.05l-.85-.14-4.68-.77-.46-.08h-.01l-.02-.01-11.15-1.82-13.73-2.26-11.64-1.91-81.5-13.39c-.06 0-.11-.01-.18-.01a.747.747 0 0 0-.26.04l-6.74 1.74-7.11 1.84-6.57 1.7-11.64 3.01-1.07.28h-.01l-13.44 3.48-11.63 3-7.67 1.99-4.99 1.29-.02.01-5.65 1.45a1.064 1.064 0 0 0-.8 1.05v101.67a1.078 1.078 0 0 0 .85 1.05l5.12 1.09 110.34 23.48 10.34 2.2h.01l.54.11a1.025 1.025 0 0 0 .55-.02l1.07-.34 30.21-9.54h.01l11.61-3.66 32.17-10.17a1.074 1.074 0 0 0 .76-1.03Z" fill="#3f3d56"/><path d="M838.147 148.2a8.65 8.65 0 0 0-7.27-8.49l-6.76-1.11-11.64-1.91-13.73-2.25-11.64-1.92-80.27-13.18a8.765 8.765 0 0 0-3.57.16l-18.52 4.8-7.48 1.93-3.05.79h-.01l-.01.01-1.09.28-11.03 2.85-3.49.9-1.07.27-10.56 2.73-20.23 5.24a8.6 8.6 0 0 0-3.63 1.96v.02a8.567 8.567 0 0 0-2.86 6.41v101.67a8.057 8.057 0 0 0 .28 2.14 8.73 8.73 0 0 0 6.59 6.33l114.91 24.45 11.43 2.43a7.284 7.284 0 0 0 1.47.17 1.939 1.939 0 0 0 .34.02 8.892 8.892 0 0 0 1.15-.08l.01-.01a7.379 7.379 0 0 0 1.45-.32l40.88-12.91 34.18-10.79a8.623 8.623 0 0 0 6.06-8.33Zm-5.87 110.53-33.79 10.67-11.39 3.6-29.89 9.44c-.17.05-.34.09-.5.13a7.195 7.195 0 0 1-2.17.13h-.01c-.2-.03-.41-.07-.62-.11l-11.3-2.4-115.06-24.48a6.543 6.543 0 0 1-4.78-4.21 6.673 6.673 0 0 1-.36-2.14V147.69a6.502 6.502 0 0 1 1.67-4.36h.01v-.01a6.465 6.465 0 0 1 2.58-1.73 4.219 4.219 0 0 1 .6-.2l19.69-5.08 11.63-3.01 1.22-.33h.03l13.27-3.42 5.99-1.55 4.86-1.26.79-.2 19.05-4.93a6.571 6.571 0 0 1 1.63-.21 7.566 7.566 0 0 1 1.06.08l80.62 13.24 11.64 1.91 13.73 2.25 11.64 1.92 6.41 1.05a6.4 6.4 0 0 1 3.31 1.6h.02a6.553 6.553 0 0 1 2.12 4.76l.84 104.27a6.466 6.466 0 0 1-4.54 6.25Z" fill="#3f3d56"/><path d="M835.254 145.268a.941.941 0 0 1-.274.122l-36.487 9.864-11.359 3.069-32.306 8.73a1.254 1.254 0 0 1-.281.036 1.769 1.769 0 0 1-.195-.014l-130.264-23.75-.433-.08a1.086 1.086 0 0 1 .39-2.136l2.62.476 127.839 23.309 27.843-7.524 15.575-4.21 35.924-9.712.57-.151a1.088 1.088 0 0 1 1.264.592.845.845 0 0 1 .065.173 1.086 1.086 0 0 1-.49 1.206Z" fill="#3f3d56"/><path d="M755.63 285.15a1.083 1.083 0 0 1-1.083-1.074l-1.083-118.06a1.083 1.083 0 0 1 1.073-1.093h.01a1.083 1.083 0 0 1 1.083 1.073l1.083 118.06a1.083 1.083 0 0 1-1.073 1.094Z" fill="#3f3d56"/><path d="m798.493 270.787-11.359 3.07-4.787-116.487-122.155-24.305a2.808 2.808 0 0 1-.354-.087 4.306 4.306 0 0 1-2.325-1.64l16.68-4.317 4.903.975 115.91 23.056a4.309 4.309 0 0 1 2.916 2.108c.361.628.564 116.877.57 117.627Z" fill="#6c63ff"/><path d="M859.847 32.82c-1.99-.53-4-1.04-5.99-1.54V22.2a12.784 12.784 0 0 0-3.45-8.8 12.032 12.032 0 0 0-3.42-2.59 8.05 8.05 0 0 0-.89-.41 11.493 11.493 0 0 0-3.71-.86 12.15 12.15 0 0 0-4.05.4 12.694 12.694 0 0 0-2.29.87 12.541 12.541 0 0 0-2.88 2.03c-.19.18-.37.36-.56.56a12.297 12.297 0 0 0-3.32 8.4v3.93a476.478 476.478 0 0 0-187.51 0V22.2a12.784 12.784 0 0 0-3.45-8.8 11.988 11.988 0 0 0-3.41-2.59 9.171 9.171 0 0 0-.9-.41 11.493 11.493 0 0 0-3.71-.86 12.175 12.175 0 0 0-4.05.4 12.6 12.6 0 0 0-2.28.87 12.384 12.384 0 0 0-2.89 2.03c-.19.18-.37.36-.55.56a12.307 12.307 0 0 0-3.33 8.4v9.48c-1.99.5-3.99 1.01-5.98 1.54l-.48.13v.49a27.721 27.721 0 0 0 2.63 11.82l1.32 2.44a27.786 27.786 0 0 0 23.85 13.54h8.41v90.95a5.977 5.977 0 0 0 5.25 6.01 5.786 5.786 0 0 0 4.48-1.48 5.846 5.846 0 0 0 1.9-4.31V61.92a18.916 18.916 0 0 1 11.95 9.78 34.168 34.168 0 0 0 2.57 4.3 32.374 32.374 0 0 0 26.53 13.69h71.8a33.124 33.124 0 0 0 15.67-3.92 30.854 30.854 0 0 0 11.64-10.78 29.27 29.27 0 0 0 1.63-2.96 18.759 18.759 0 0 1 12.1-10.11v90.27a5.977 5.977 0 0 0 5.25 6.01 5.63 5.63 0 0 0 .58.03 5.806 5.806 0 0 0 3.91-1.51 5.884 5.884 0 0 0 1.9-4.31V61.24h8.4a27.773 27.773 0 0 0 23.85-13.54 27.271 27.271 0 0 0 1.32-2.44 27.728 27.728 0 0 0 2.64-11.82v-.49Z" fill="#6c63ff"/><circle cx="732.948" cy="70.942" r="31.036" fill="#3f3d56"/><circle cx="732.948" cy="70.942" r="16.552" fill="#6c63ff"/><path d="M886.837 4.34h-40.74v6.47h47.82a7.127 7.127 0 0 0-7.08-6.47ZM797.607 4.34a7.144 7.144 0 0 0-7.09 6.47h47.82V4.34Z" fill="#6c63ff"/><path d="M852.397 10.81a11.11 11.11 0 0 0-3.74-6.47 10.972 10.972 0 0 0-17.89 6.47 10.293 10.293 0 0 0-.19 1.94v.65h21.99v-.65a12.387 12.387 0 0 0-.17-1.94Z" fill="#3f3d56"/><path d="M674.757 4.34h-40.74v6.47h47.82a7.127 7.127 0 0 0-7.08-6.47ZM585.527 4.34a7.144 7.144 0 0 0-7.09 6.47h47.82V4.34Z" fill="#6c63ff"/><path d="M640.317 10.81a10.983 10.983 0 0 0-21.63 0 10.294 10.294 0 0 0-.18 1.94v.65h21.98v-.65a12.386 12.386 0 0 0-.17-1.94ZM613.382 45.26a965.421 965.421 0 0 1 244.305 0 27.709 27.709 0 0 1-1.32 2.444 960.591 960.591 0 0 0-120.03-7.617h-.027c-2.288 0-4.59 0-6.88.026h-.038a958.682 958.682 0 0 0-114.69 7.59Z" fill="#3f3d56"/><path d="M690.718 241.183a1.956 1.956 0 0 1-.428-.048l-40.088-9.052a1.94 1.94 0 0 1 .854-3.785l40.088 9.052a1.94 1.94 0 0 1-.426 3.833ZM680.373 216.613a1.956 1.956 0 0 1-.428-.048l-40.088-9.052a1.94 1.94 0 0 1 .853-3.785l40.088 9.052a1.94 1.94 0 0 1-.425 3.833Z" fill="#6c63ff"/></svg>